<?xml version="1.0" encoding="utf-8"?>
<!-- Generator: Adobe Illustrator 16.0.0, SVG Export Plug-In . SVG Version: 6.00 Build 0)  -->
<!DOCTYPE svg PUBLIC "-//W3C//DTD SVG 1.1//EN" "http://www.w3.org/Graphics/SVG/1.1/DTD/svg11.dtd">
<svg version="1.1" id="Layer_1" xmlns="http://www.w3.org/2000/svg" xmlns:xlink="http://www.w3.org/1999/xlink" x="0px" y="0px"
	 width="340px" height="340px" viewBox="0 0 340 340" enable-background="new 0 0 340 340" xml:space="preserve">
<g>
	<g>
		<g>
			<circle cx="170" cy="170" r="170"/>
		</g>
	</g>
	<g>
		<path fill="#FFFFFF" d="M77.085,141.17l-0.322,1.156c-0.212,1.043-0.093,1.371-0.458,2.616c1.033,0.59,0.918,0.483,2.033,0.895
			c-0.841,2.385-1.226,4.382-1.78,6.734l-4.214,23.509c-0.364,1.247-1.032,1.86-1.203,2.814l-1.652,13.001
			c0.34,2.77-0.113,5.607,0.072,7.546c-6.341,1.341-6.75-5.486-6.111-9.654c0.196-0.888,0.16-0.579,0.319-1.158
			c1.149-3.981-0.895-2.048,0.773-5.625c1.872-4.246,0.786-4.369,1.621-8.609l2.953-12.285c0.667-3.064-1.546-4.856-1.605-7.878
			c-0.516-5.085,1.467-10.037,1.914-14.729c-1.605-0.531-2.898-0.207-4.352,0.691c-3.407,2.059-6.12,5.421-8.509,8.445
			c-4.235,5.699-3.819,8.068-4.682,11.205c-0.547,1.76-0.822,2.23-2.14,2.485c2.659-1.263-3.926-2.428,0.13-10.663l3.294-4.611
			c2.704-3.586,9.647-9.602,14.44-11.123c4.814-1.455,7.567-0.824,10.033,3.699L77.085,141.17z M52.346,148.467
			c-0.4,0.739-0.332,0.715-0.162,0.579c0.109-0.113,0.215-0.229,0.341-0.496C52.793,148.675,52.806,147.484,52.346,148.467z
			 M68.188,185.464c-0.309,0.781,0.115,0.106,0.138,0.173C68.505,185.722,68.481,184.838,68.188,185.464z M67.003,174.462
			c-0.554,0.72-0.447-0.209-0.398,1.555c0.043-0.088,0.215-0.227,0.189-0.289c0.043-0.09,0.191-0.295,0.168-0.36L67.003,174.462z"/>
		<path fill="#FFFFFF" d="M102.212,169c-4.213,3.312-11.276,22.663-22.08,15.012c-1.103-0.786-2.061-1.995-2.902-3.694
			c-2.148-4.268,1.948-16.671,5.185-21.041c1.12-1.002,3.556-3.895,5.065-4.443c2.812-1.246,7.636,1.602,9.454,2.721
			c-1.007,1.928-3.826-1.131-7.314,2.143c-4.814,4.723-12.009,23.304-3.862,21.822C89.538,180.886,99.768,170.851,102.212,169z"/>
		<path fill="#FFFFFF" d="M127.312,142.49c1.294,2.127,1.016,7.275-0.062,14.722c-0.976,7.112-0.366,11.641-3.196,13.859
			c-2.593-1.209-2.344-1.743-2.666-4.67c-0.856-7.857,0.39-12.393-0.788-16.643c-3.168,2.713-6.386,9.377-8.172,13.441
			c-2.031,4.824-3.335,10.42-3.746,16.435c-3.462,0.072-3.807,0.348-6.056-1.952l4.035-55.815c2.342-1.521,4.275-1.927,6.677-1.241
			c1.169,4.846-0.23,12.628-1.043,17.53l-2.677,19.978c2.834-1.995,3.407-5.32,6.976-9.59c2.61-3.029,3.847-6.153,9.875-6.935
			L127.312,142.49z M108.411,159.093c0.53,2.48,0.988-0.135,0.988-0.135L108.411,159.093z"/>
		<path fill="#FFFFFF" d="M173.416,133.505c-0.675,1.209-1.057,1.793-1.418,3.041c-2.438,6.156-0.99,2.586-3.771,5.752
			l-9.473,13.547c-0.95,1.678-6.264,6.658-8.783,10.543c-1.057,1.795-2.038,3.787-5.214,4.646l-1.593-2.538
			c3.515-4.62,3.933-1.433,5.887-5.855c-6.82-4.052-3.779-2.634-3.045-16.934l1.243-11.886c0.26-2.544,0.558-5.4,0.933-7.838
			c0.494-2.927-0.114-5.006,0.307-8.13l1.095-5.967c1.186-3.476,0.179,0.083,0.269-3.958c0.125-0.269,0.046-1.502,0.172-1.77
			c-0.023-0.066-0.006-0.222-0.03-0.287l-0.023-0.064l0.159-0.579l3.965-0.328c2.2,3.801,1.095,13.409,0.468,17.202
			c-0.905,5.674-1.974,9.257-2.272,16.195c1.55-1.455,2.76-3.232,4.22-4.729C166.111,123.839,179.135,123.108,173.416,133.505z
			 M162.795,137.372c0.684-2.403,0.803-2.076,0.402-3.786c-3.939,2.027-8.181,9.957-9.328,13.938
			c-0.437,1.051-0.656,1.873-0.973,3.25c-0.164,1.173-0.243,2.389-0.343,3.541l-0.209,3.711c1.723-2.408,0.271-0.689,1.401-2.883
			c2.061-3.72,1.623,1.192,3.158-4.786l0.262-0.913c0.041-0.09,0.249-0.537,0.245-0.757L162.795,137.372z M149.971,105.808"/>
		<path fill="#FFFFFF" d="M178.958,131.189c1.257-6.545-1.617-14.852,6.69-13.645c0.03,2.736-0.447,6.324-1.035,8.989
			c-3.021,21.071-1.458,24.14-2.054,25.769c-5.752-1.322-6.075-2.615-5.694-8.1l1.885-11.748L178.958,131.189z M185.304,103.339
			c-0.398,1.558-1.476,5.734-2.053,6.392c-2.605,2.433-1.863-10.013-1.912-11.778c2.312-1.805,2.229-1.626,4.62-1.383
			C187.692,98.683,186.043,100.474,185.304,103.339z"/>
		<path fill="#FFFFFF" d="M210.128,115.243l-0.747,16.308c-0.218,1.64-0.366,6.741-1.063,7.887
			c-9.572,1.032-2.146-16.295-4.149-21.801c-2.412,2.955-7.207,17.321-7.741,21.153c-0.537,3.015,0.019,3.929-0.833,6.688
			c-7.701,0.873-4.741-7.109-4.571-18.679c0.064-3.29,0.713-5.383-0.311-6.567c-1.599,2.139-3.083,1.938-3,1.758
			c3.502-7.512,3.862-7.344,8.569-7.054c1.666,3.554-0.213,6.76-0.072,14.282c2.907-5.885,4.535-18.949,12.152-22.094
			C210.68,109.622,210.068,112.219,210.128,115.243z"/>
		<path fill="#FFFFFF" d="M114.943,224.663c5.233,0.098,9.083,1.296,20.33,0.172c-12.128,4.414-21.648,3.351-27.874,6.434
			c0.596,4.905,0.215,7.938,0.025,12.312c-2.144-0.184-7.295-2.911-6.777-5.771c1.433-16.263,4.878-33.107,4.838-48.312
			c-0.066-0.792,0.719-7.612,7.518-7.491c0.072,0.198,0.187,0.305,0.21,0.37l0.341,2.773c-0.641,11.293-3.07,16.856-4.026,29.527
			c4.218-3.908,9.277-10.208,15.846-8.885c-0.43,3.719-1.465,4.543-2.967,7.763L114.943,224.663z M108.408,223.848
			c2.236-1.405,7.129-6.528,8.338-9.122c1.041-2.235,0.779-2.14,0.784-4.369c-3.045,1.626-4.642,3.769-6.614,5.897
			C107.931,219.27,108.939,218.979,108.408,223.848z"/>
		<path fill="#FFFFFF" d="M155.402,198.131c0.023,1.698-6.358,9.664-7.507,11.197c-3.58,4.645-3.831,4.362-5.321,8.839l-2.079,4.692
			c-0.745,1.013-4.562,9.085-10.674,4.33c-0.227-0.214-1.686-1.983-1.758-2.182c-4.461-8.174,0.108-33.968,14.172-26.539
			c4.673,4.686,2.482,8.451,2.78,10.495C147.501,207.838,153.872,200.247,155.402,198.131z M138.16,218.887
			c-3.564,2.854-6.69-0.017-7.035-0.561c0.185,1.938,0.151,8.779,3.52,5.996L138.16,218.887z M133.246,216.812
			c4.895,0.595,7.297-2.805,7.723-6.523c0.085-1.811,0.323-0.339-0.255-2.949C138.469,196.275,128.381,209.971,133.246,216.812z"/>
		<path fill="#FFFFFF" d="M184.944,179.956c0.67,9.186-4.502,31.484-2.188,37.024c-2.553,0.337-4.854,0.95-6-2.195
			c-1.599-4.394,0.462-16.277-0.545-20.069l-4.938,15.606c-2.217,5.334,0.502,7.908-8.017,4.699
			c-0.724-4.64,1.874-11.374,0.724-15.559c-1.776,2.875-3.264,10.617-5.326,15.971c-1.471,3.504,0.2,8.095-6.735,3.118
			c0.488-6.41,5.354-17.316,2.158-22.833c-2.336,2.557-3.456,3.558-4.284,4.75c1.912-8.415,0.945-13.111,8.055-12.137
			c1.844,2.819,2.821,5.507,2.47,8.826c2.097-3.213,1.376-3.768,4.161-6.936c3.175-3.307,7.353-3.862,8.325,2.688
			c1.533-2.933,3.927-8.185,4.82-11.034C181.373,180.141,181.678,179.138,184.944,179.956z"/>
		<path fill="#FFFFFF" d="M201.437,193.033c-3.604,2.127-2.24,2.819-6.692,4.663l-0.119,1.306c-0.112,0.708,0.549,1.507,0.471,1.905
			c-0.23,1.198-1.12,2.636-1.29,4.407c-0.077,2.032,0.102,2.93-0.037,4.391c-0.235,2.612,0.426,0.961-0.325,2.568
			c-0.262,0.913-1.095,4.334-1.082,5.593c0.101,2.115-0.168,3.624-0.029,5.43c-2.885,0.234-5.733,0.157-7.284-2.472
			c0.393-3.409,1.551-1.454,1.333-5.311c0.132-0.047,0.981-6.891,1.506-11.98c0.325-3.386,1.079-12.94,1.151-14.377
			c0.736-5.317-0.5-15.039,1.854-16.935c1.555-1.234,3.939-1.211,5.446-0.942c0.569,3.801-0.325,3.386-0.211,5.942
			c2.172-1.98,4.928-6.247,9.301-6.06C214.759,172.521,205.739,190.576,201.437,193.033z M190.371,204.854
			c-0.07,0.621-0.405,1.337-0.53,1.604c-0.215,1.043-0.219,1.642-0.415,2.527C190.611,207.959,190.676,206.303,190.371,204.854z
			 M190.562,184.369c0.041-0.089,0.216-0.228,0.341-0.496l-0.09-0.042c-0.072-0.196-0.251-0.279-0.294-0.189
			C190.324,184.529,190.388,184.508,190.562,184.369z M202.463,175.657c-5.381,3.37-5.049,6.736-5.034,9.628
			c-0.04,2.54-0.904,3.224-0.809,5.121C200.237,187.084,205.115,182.339,202.463,175.657z"/>
		<path fill="#FFFFFF" d="M218.249,141.107c2.348-0.484,6.062-1.093,6.722,1.339c-3.903,18.646-5.491,29.987-7.488,48.978
			c2.551-1.149,5.785-5.521,8.026-7.525c-0.436,1.866-3.2,6.512-4.188,8.281c-2.198,4.363-3.006,7.034-6.75,8.174
			c-3.428-3.505-3.28-3.704-2.794-8.486c2.547-14.218,3.675-29.475,4.87-43.943L218.249,141.107z"/>
		<path fill="#FFFFFF" d="M253.788,167.148c-0.023,1.568-0.023,0.752-0.812,1.854l-7.654,10.583
			c-3.977,5.602-6.023,11.397-12.109,12.425c-9.494,1.45-10.304-9.542-5.589-18.012c1.113-2.038,0.756-2.206,1.631-4.083
			c1.358-2.796,2.413-4.591,3.969-7.456c2.067-0.234,4.102-0.158,5.989-0.473c3.074-0.525,2.926-1.139,5.143,0.057
			c-1.572,5.473-5.76,12.118-8.893,16.972c-3.193,5.098-6.729,1.707-5.721,7.131c1.386,8.702,11.83-5.643,15.941-9.439
			c2.108-1.957,1.521-2.559,4.701-5.646C250.837,170.673,251.797,168.616,253.788,167.148z M230.604,181.376
			c3.362-2.188,6.143-7.804,7.371-11.368c0.613-1.782,1.495-2.623,1.631-4.084C235.78,166.427,230.319,178.14,230.604,181.376z"/>
		<path fill="#FFFFFF" d="M286.066,135.281c-0.361,2.061-5.722,3.047-11.971,7.699c-0.722,1.078-0.274,2.104-0.542,3.611
			c-1.787,9.781-4.61,29.148-2.964,33.671c4.393-1.6,7.09-4.587,10.386-7.567c-2.823,5.704-7.477,13.115-12.954,12.138
			c-1.199-0.231-1.954-1.292-2.45-3.264c-2.859,5.195-6.959,10.254-11.59,9.562c-6.564-1.101-0.689-31.673-0.287-39.541
			c-1.775,1.24-7.212,2.625-9.254,4.556l0.819-4.68c3.35-2.63,8.511-3.543,8.719-3.99c2.384-3.243,1.44-11.956,2.566-14.37
			c7.593-1.576,4.448,6.918,4.265,12.33c3.768-1.891,6.895-2.881,7.087-3.172c2.382-3.246,1.604-13.131,2.688-15.457
			c7.726-1.625,4.396,7.383,4.344,12.748C277.557,138.005,282.581,136.92,286.066,135.281z M267.736,145.292
			c-0.781,0.506-2.919,1.36-5.257,2.284l-2.426,1.699c-0.72,1.08-0.238,3.429-0.57,4.96c-1.482,5.514-3.579,28.105-2.937,32.325
			c3.696-1.271,6.192-3.59,8.772-6.09C263.625,171.735,267.325,151.307,267.736,145.292z"/>
		<path fill="#FFFFFF" d="M287.48,170.773c0.083,0.636-1.248,10.033-3.119,11.828c-3.773-0.779-4.475-2.902-4.337-7.629
			C280.138,170.996,284.466,170.238,287.48,170.773z M291.483,120.984l-2.861,41.504c-0.828,3.641-3.193,1.831-8.021,2.029
			c7.812-24.227,1.858-36.093,4.146-42.863C287.25,120.371,289.29,120.669,291.483,120.984z"/>
	</g>
</g>
</svg>
