<?xml version="1.0" encoding="utf-8"?>
<!-- Generator: Adobe Illustrator 16.0.0, SVG Export Plug-In . SVG Version: 6.00 Build 0)  -->
<!DOCTYPE svg PUBLIC "-//W3C//DTD SVG 1.1//EN" "http://www.w3.org/Graphics/SVG/1.1/DTD/svg11.dtd">
<svg version="1.1" id="Layer_1" xmlns="http://www.w3.org/2000/svg" xmlns:xlink="http://www.w3.org/1999/xlink" x="0px" y="0px"
	 width="340px" height="340px" viewBox="0 0 340 340" enable-background="new 0 0 340 340" xml:space="preserve">
<g>
	<g>
		<circle cx="170" cy="170" r="170"/>
	</g>
	<g>
		<path fill="#FFFFFF" d="M108.05,116.843c-0.743,2.866-1.769,11.192-1.562,13.549l5.51-1.355l-0.154,2.248l-0.098-0.046
			l-5.432,2.463c-0.382,1.844-0.489,1.558-0.428,2.835l-1.881,29.163c-0.318,4.253-0.193,7.05-0.276,11.056
			c-4.982,0.351-7.727-0.273-7.371-5.755c0.266-6.183,1.558-24.262,2.781-28.926c0.742-2.867-0.212-2.358-0.017-5.837
			c-5.166,1.637-6.851,2.574-8.777,7.089c-4.075,9.76-6.883,15.649-6.886,25.226c-0.103,3.283,1.035,0.842-0.917,4.393
			c-4.457,0.241-7.628-0.229-11.484-1.016c-5.559-1.223-1.656-1.425-5.292-4.728c-1.806-1.614-2.19-3.339-1.932-7.98
			c0.266-5.289,6.656-9.803,10.694-12.977c13.774-10.532,12.031-3.73,17.05-16.024c3.097-7.539,5.781-14.438,7.288-22.775
			l4.38-0.458c0.942-1.64,0.19-3.478,3.281-4.358c1.869-0.438,4.052-0.014,5.195,0.461L108.05,116.843z M86.261,143.03
			c-4.086,1.487-19.098,9.953-14.509,18.993c0.709,1.285,1.526,1.962,2.201,2.933l2.788,2.313c1.524-2.504,3.03-8.405,4.495-12.185
			L86.261,143.03z M100.938,124.055c0.519-2.135,3.209-7.902,1.573-9.496c-1.782,2.678-7.174,16.404-8.308,19.983
			c2.373-0.621,4.3-1.567,6.05-2.771L100.938,124.055z"/>
		<path fill="#FFFFFF" d="M141.621,121.014c1.415,2.326,1.112,7.954-0.065,16.091c-1.066,7.773-0.4,12.722-3.495,15.144
			c-2.834-1.319-2.561-1.906-2.914-5.105c-0.936-8.584,0.428-13.543-0.86-18.187c-3.463,2.964-6.977,10.25-8.932,14.691
			c-2.22,5.271-3.644,11.389-4.091,17.963c-3.784,0.079-4.161,0.379-6.619-2.136l4.413-61.001c2.555-1.662,4.668-2.105,7.293-1.355
			c1.28,5.293-0.251,13.801-1.141,19.158l-2.923,21.836c3.095-2.183,3.724-5.818,7.624-10.482c2.853-3.31,4.208-6.724,10.793-7.579
			L141.621,121.014z M120.965,139.162c0.578,2.71,1.081-0.149,1.081-0.149L120.965,139.162z"/>
		<path fill="#FFFFFF" d="M177.058,114.04c0.028,1.857-6.944,10.562-8.205,12.237c-3.909,5.076-4.184,4.769-5.813,9.663
			l-2.271,5.126c-0.815,1.108-4.99,9.927-11.664,4.733c-0.251-0.234-1.848-2.168-1.927-2.385
			c-4.874-8.936,0.121-37.123,15.489-29.004c5.11,5.118,2.713,9.236,3.039,11.47C168.424,124.647,175.387,116.353,177.058,114.04z
			 M158.213,136.721c-3.895,3.122-7.307-0.016-7.688-0.611c0.205,2.118,0.167,9.596,3.849,6.554L158.213,136.721z M152.847,134.458
			c5.348,0.648,7.972-3.065,8.438-7.131c0.093-1.98,0.354-0.372-0.28-3.225C158.553,112.012,147.527,126.98,152.847,134.458z"/>
		<path fill="#FFFFFF" d="M191.746,125.41c-0.479,2.69-0.982,9.12-1.103,11.679c-0.261,4.638-1.448,2.718-1.857,6.274
			c-0.247,1.549,0.061,1.277-0.526,2.787c-2.94,9.753-15.056,13.918-20.924,9.16c7.353-0.08,13.99-2.577,15.94-14.161
			c0.624-2.741,2.82-14.984,2.127-17.569c-2.197,1.773-6.59,11.324-12.222,6.555c-4.096-3.456-0.94-14.18-0.754-19.683
			c0.084-4.007-6.227-3.739,3.788-6.98c4.738-1.479,0.628,9.753,1.592,21.981c2.788-1.259,3.69-3.456,5.106-5.593
			c1.945-2.898,3.142-12.99,2.801-17.491c3.519-1.036,3.202-2.788,6.339-1.981C192.598,102.785,192.411,122.327,191.746,125.41z"/>
		<path fill="#FFFFFF" d="M210.492,126.536c-0.656,1.538-2.252,3.174-4.9,5.031c1.177-2.782,1.489-4.601,0.865-5.427
			c-0.865,0.072-1.986-0.331-3.169-1.119c-1.178-0.788-1.693-1.98-1.373-3.556c0.316-1.578,0.723-2.697,1.094-3.239
			c0.461-0.735,1.075-1.282,1.782-1.784c0.914-1.062,2.16-1.434,3.761-1.044c1.602,0.39,2.597,2.46,2.993,6.214
			C211.518,123.325,211.153,125,210.492,126.536z"/>
		<path fill="#FFFFFF" d="M162.75,160.052c0.499,4.04-3.032,27.557-4.158,30.483c0.105,0.287-2.148,0.783-2.045,1.07l1.049,0.428
			c0.489,0.229,1.049,0.431,1.129,0.645c-0.268,5.289-0.521,4.814,1.178,5.25l0.465,0.156c-0.684,5.929-1.889,0.607-1.104,11.681
			c-0.124,2.561,0.909,10.302,0.784,12.86c-0.368,2.325,0.172,4.482,0.303,6.625c-3.31,1.607-5.46-0.286-8.208-2.043
			c-1.494-5.22-0.193-13.236,0.915-16.888l-0.572-9.366l0.386-0.952c0.232-2.923-0.517-2.082,0.011-4.873
			c0.645-2.018-1.044-2.864-0.998-5.641c-0.13-2.141-0.321-3.777-0.198-6.337c0.091-2.874,0.794-2.725,0.473-6.502
			c-1.524,1.611-0.287,0.105-1.419,1.897c-4.589,6.78-6.498,18.268-9.501,26.502c-2.441,6.894-4.289,19.655-8.301,21.113
			c-6.234,2.271-6.854-24.848-8.68-31.647l-0.931,2.122c-1.836,5.213-2.613,19.127-3.611,31.095
			c-0.463,5.198,0.672,7.87,0.23,10.221c-0.863,4.535-5.442,5.552-9.457,5.226c0.754-4.169,0.379,1.485,2.041-11.776l4.952-42.129
			c0.619-2.093,0.991-3.526,1.359-5.851c0.405-2.014-1.903-8.801,9.034-9.292c4.091,4.109,1.583,25.309,4.792,38.583
			c3.67-2.635,1.617-4.482,4.117-9.205c0.669-1.059,0.644-0.236,1.107-1.865c1.612-4.482-0.861-1.47,2.692-9.095
			c0.073-0.024,0.073-0.024,0.117-0.123c0.047-0.098,0.065-0.268,0.04-0.339c1.538-2.914,1.964-11.102,3.48-12.953
			c2.611-3.302,1.057-1.114,3.067-6.064l0.819-1.759c0.052-0.749-0.102-0.286,0.34-0.854c3.484-5.811,2.304-6.6,4.966-8.869
			C155.893,159.711,159.253,159.136,162.75,160.052z"/>
		<path fill="#FFFFFF" d="M186.797,190.655c-0.319,4.254-0.859,8.345-0.694,12.588c1.655,1.426,2.549,1.424,2.255,4.856
			c-0.467,4.067-7.351,7.223-9.568-6.01c-1.955,2.658-3.777,14.601-10.493,12.42c-8.659-2.609-3.707-18.206-2.064-22.617
			c3.13-9.01,8.655-8.1,11.442-8.465c0.508-1.727,0.084-3.114,3.868-4.087C191.125,176.91,187.373,182.655,186.797,190.655z
			 M178.19,189.083c-3.936,0.781-10.036,10.549-8.977,21.931c2.429-1.13,5.945-8.415,6.974-11.385
			C177.618,195.538,178.607,193.8,178.19,189.083z"/>
		<path fill="#FFFFFF" d="M203.163,171.635c0.212,6.823-3.348,33.837-2.639,38.447c4.798-1.746,7.748-5.011,11.352-8.269
			c-3.087,6.234-8.59,13.188-14.578,12.122c-7.171-1.203-1.696-32.978-1.256-41.575c-1.94,1.354-6.467,2.519-8.701,4.628
			l0.898-5.113c3.658-2.875,8.114-3.117,8.343-3.605c2.605-3.544,0.791-13.433,1.976-15.973c8.442-1.776,6.022,7.625,5.964,13.487
			c2.945-1.719,11.698-4.419,15.582-6.235c-0.397,2.252-8.079,4.562-14.837,9.617C204.549,170.32,203.163,169.852,203.163,171.635z"
			/>
		<path fill="#FFFFFF" d="M240.987,171.662c-0.028,1.714-0.026,0.821-0.885,2.026l-8.371,11.565
			c-4.342,6.126-6.58,12.457-13.231,13.578c-10.377,1.588-11.262-10.424-6.11-19.682c1.217-2.229,0.826-2.411,1.784-4.463
			c1.484-3.056,2.637-5.017,4.336-8.15c2.262-0.256,4.481-0.171,6.546-0.519c3.362-0.574,3.199-1.245,5.622,0.065
			c-1.717,5.981-6.294,13.243-9.72,18.548c-3.488,5.571-7.354,1.865-6.251,7.791c1.515,9.514,12.93-6.166,17.423-10.315
			c2.304-2.139,1.661-2.795,5.138-6.172C237.763,175.514,238.812,173.268,240.987,171.662z M215.649,187.214
			c3.672-2.393,6.713-8.528,8.056-12.427c0.672-1.948,1.632-2.864,1.784-4.459C221.304,170.874,215.338,183.677,215.649,187.214z"/>
		<path fill="#FFFFFF" d="M255.555,177.801c-0.479,2.69-0.982,9.12-1.104,11.683c-0.261,4.635-1.447,2.715-1.854,6.273
			c-0.247,1.549,0.058,1.275-0.529,2.788c-2.94,9.752-15.056,13.918-20.928,9.156c7.354-0.079,13.993-2.575,15.944-14.16
			c0.622-2.741,2.822-14.982,2.126-17.57c-2.195,1.773-6.59,11.325-12.221,6.559c-4.097-3.458-0.94-14.181-0.755-19.684
			c0.084-4.007-6.227-3.739,3.789-6.979c4.738-1.48,0.631,9.75,1.592,21.979c2.788-1.259,3.693-3.453,5.105-5.592
			c1.945-2.901,3.142-12.99,2.802-17.493c3.52-1.035,3.204-2.788,6.339-1.98C256.408,155.178,256.22,174.72,255.555,177.801z"/>
		<path fill="#FFFFFF" d="M271.862,177.789c0.091,0.696-1.365,10.966-3.412,12.925c-4.123-0.852-4.887-3.169-4.737-8.338
			C263.837,178.034,268.564,177.206,271.862,177.789z M276.237,123.376l-3.129,45.359c-0.903,3.98-3.489,2.001-8.768,2.219
			c8.541-26.478,2.034-39.447,4.533-46.847C271.61,122.706,273.84,123.03,276.237,123.376z"/>
	</g>
</g>
</svg>
