<?xml version="1.0" encoding="utf-8"?>
<!-- Generator: Adobe Illustrator 16.0.0, SVG Export Plug-In . SVG Version: 6.00 Build 0)  -->
<!DOCTYPE svg PUBLIC "-//W3C//DTD SVG 1.1//EN" "http://www.w3.org/Graphics/SVG/1.1/DTD/svg11.dtd">
<svg version="1.1" id="Layer_1" xmlns="http://www.w3.org/2000/svg" xmlns:xlink="http://www.w3.org/1999/xlink" x="0px" y="0px"
	 width="340px" height="340px" viewBox="0 0 340 340" enable-background="new 0 0 340 340" xml:space="preserve">
<g>
	<circle cx="170" cy="170" r="170"/>
	<g>
		<g>
			<path fill="#FFFFFF" d="M85.892,142.368l-0.322,1.212c-0.213,1.093-0.085,1.434-0.45,2.74c1.084,0.604,0.965,0.494,2.135,0.91
				c-0.85,2.501-1.231,4.592-1.784,7.06l-4.132,24.615c-0.366,1.309-1.056,1.958-1.226,2.954l-1.578,13.606
				c0.387,2.893-0.053,5.862,0.164,7.884c-6.612,1.479-7.116-5.657-6.499-10.02c0.194-0.93,0.162-0.604,0.323-1.21
				c1.154-4.176-0.959-2.134,0.743-5.892c1.906-4.455,0.771-4.573,1.593-9.012l2.944-12.873c0.663-3.209-1.67-5.058-1.768-8.216
				c-0.596-5.307,1.42-10.506,1.832-15.414c-1.682-0.535-3.029-0.183-4.539,0.774c-3.539,2.189-6.334,5.734-8.795,8.92
				c-4.361,6.005-3.897,8.479-4.764,11.765c-0.552,1.844-0.833,2.339-2.206,2.623c2.763-1.352-4.134-2.495,0.011-11.145l3.39-4.859
				c2.786-3.776,9.972-10.143,14.962-11.788c5.016-1.576,7.901-0.949,10.526,3.75L85.892,142.368z M60.122,150.277
				c-0.409,0.776-0.34,0.75-0.161,0.606c0.11-0.12,0.221-0.239,0.349-0.521C60.591,150.49,60.589,149.244,60.122,150.277z
				 M75.738,177.273c-0.571,0.761-0.469-0.211-0.398,1.631c0.042-0.093,0.221-0.24,0.195-0.307c0.043-0.094,0.196-0.308,0.17-0.376
				L75.738,177.273z M77.102,188.76c-0.314,0.818,0.12,0.109,0.145,0.178C77.435,189.022,77.399,188.102,77.102,188.76z"/>
			<path fill="#FFFFFF" d="M122.799,168.829c-0.346,3.012-0.666,7.339-0.68,9.37c-0.199,4.438-1.353,2.614-1.708,6.018
				c-0.219,1.486,0.07,1.222-0.474,2.672c-2.711,9.357-14.252,13.466-19.915,8.977c7.032-0.153,13.352-2.611,15.096-13.706
				c0.263-1.577,1.289-6.716,2.168-19.28c-0.682,0.88-1.326,4.551-7.188,11.12c-4.373,3.904-9.313-2.182-9.474-8.196
				c0.031-2.194,1.01-10.353,5.367-13.473c1.168-0.83,9.82-1.438,10.155,0.072c-1.482,2.271-3.002,1.13-5.049,2.524
				c-2.541,1.735-6.626,9.506-4.083,16.26c3.821-2.061,8.05-10.898,9.496-14.714c1.276-3.44,0.095-6.58,0.493-8.21
				c0.816-2.8,5.16-2.02,7.354-1.989C123.837,153.168,124.212,158.714,122.799,168.829z"/>
			<path fill="#FFFFFF" d="M157.154,146.859c-0.007,1.638-0.015,0.785-0.825,1.946l-7.879,11.147
				c-4.089,5.902-6.164,11.98-12.511,13.123c-9.905,1.625-10.876-9.85-6.049-18.757c1.14-2.144,0.765-2.313,1.658-4.285
				c1.387-2.938,2.469-4.826,4.061-7.84c2.159-0.267,4.284-0.21,6.255-0.562c3.208-0.585,3.044-1.225,5.376,0.001
				c-1.58,5.736-5.88,12.731-9.099,17.838c-3.279,5.363-7.012,1.861-5.896,7.518c1.547,9.077,12.297-6.033,16.55-10.049
				c2.182-2.068,1.559-2.69,4.848-5.955C154.112,150.576,155.091,148.416,157.154,146.859z M133.092,161.995
				c3.487-2.326,6.33-8.226,7.57-11.965c0.621-1.87,1.533-2.758,1.659-4.286C138.329,146.312,132.754,158.616,133.092,161.995z"/>
			<path fill="#FFFFFF" d="M162.949,131.434c0.273,6.519-2.843,32.388-2.12,36.791c4.572-1.721,7.358-4.873,10.769-8.027
				c-2.887,5.994-8.075,12.7-13.811,11.743c-6.871-1.076-1.969-31.513-1.637-39.739c-1.842,1.316-6.158,2.474-8.272,4.517l0.804-4.9
				c3.471-2.787,7.727-3.064,7.941-3.534c2.453-3.417,0.615-12.853,1.721-15.295c8.054-1.785,5.838,7.229,5.846,12.835
				c2.796-1.676,11.138-4.35,14.831-6.129c-0.356,2.159-7.676,4.447-14.085,9.354C164.262,130.16,162.931,129.727,162.949,131.434z"
				/>
		</g>
		<g>
			<path fill="#FFFFFF" d="M151.742,204c-0.259,4.072-0.733,7.99-0.531,12.043c1.597,1.347,2.451,1.335,2.207,4.623
				c-0.405,3.891-6.954,6.98-9.215-5.646c-1.84,2.563-3.455,13.998-9.901,11.984c-8.306-2.405-3.734-17.367-2.212-21.604
				c2.899-8.649,8.191-7.836,10.854-8.214c0.467-1.657,0.048-2.98,3.656-3.948C155.735,190.811,152.209,196.346,151.742,204z
				 M143.497,202.587c-3.753,0.789-9.485,10.192-8.353,21.062c2.311-1.104,5.596-8.105,6.548-10.957
				C143.019,208.764,143.946,207.091,143.497,202.587z"/>
			<path fill="#FFFFFF" d="M180.861,191.247c-2.576,7.435-4.694,0.987-10.158-1.319c-9.003,6.508-6.511,26.992-8.521,29.929
				c-1.802-0.646-5.439-2.235-6.363-4.694l2.47-23.443c0.577-8.396-0.23-5.989,0.927-9.542c1.155-3.551,7.25-2.263,7.277-1.57
				c-0.015,2.031-1.903,0.327-1.414,8.87c3.129-2.038,5.011-4.694,9.411-2.532C178.323,188.854,176.804,189.578,180.861,191.247z"/>
			<path fill="#FFFFFF" d="M210.2,177.63c0.047,1.775-6.531,10.174-7.715,11.786c-3.688,4.895-3.953,4.604-5.457,9.301l-2.12,4.926
				c-0.766,1.068-4.663,9.546-11.104,4.648c-0.238-0.221-1.786-2.055-1.862-2.259c-4.756-8.494-0.275-35.499,14.506-27.897
				c4.938,4.841,2.689,8.804,3.025,10.937C202.059,187.863,208.626,179.858,210.2,177.63z M192.421,199.516
				c-3.693,3.025-6.99,0.061-7.356-0.503c0.215,2.022,0.26,9.173,3.746,6.225L192.421,199.516z M187.264,197.405
				c5.121,0.564,7.591-3.013,7.996-6.905c0.066-1.894,0.333-0.358-0.303-3.079C192.483,175.888,182.101,190.312,187.264,197.405z"/>
			<path fill="#FFFFFF" d="M224.792,180.319c-1.008,11.6,1.09,11.589,3.612,16.014c-7.983,1.136-8.137-4.027-8.882-6.628
				c-2.921,4.449-3.008,10.014-9.424,12.43c-10.047-4.554-4.755-15.117-7.396-30.405c15.749-11.147,3.502,14.886,7.551,23.568
				c7.353-8.611,9.784-16.227,8.821-28.095c0.354-4.028,4.993-3.906,7.395-2.706C228.256,166.551,225.062,177.103,224.792,180.319z"
				/>
			<path fill="#FFFFFF" d="M252.71,158.98l-0.592,17.05c-0.209,1.718-0.308,7.05-1.021,8.253
				c-9.991,1.191-2.427-17.003-4.585-22.736c-2.487,3.119-7.333,18.187-7.849,22.198c-0.524,3.159,0.064,4.104-0.792,6.999
				c-8.04,1.001-5.036-7.377-4.992-19.467c0.029-3.439,0.683-5.634-0.4-6.861c-1.646,2.255-3.199,2.061-3.115,1.873
				c3.573-7.89,3.952-7.72,8.875-7.471c1.779,3.693-0.146,7.067,0.087,14.924c2.972-6.181,4.524-19.853,12.447-23.226
				C253.226,153.1,252.612,155.822,252.71,158.98z"/>
			<path fill="#FFFFFF" d="M275.584,118.429c1.295-1.733,6.293-3.148,8.204-2.622c-1.783,12.436-1.461,9.979-3.021,17.422
				c-3.812,17.405-1.173,12.205-3.477,24.29c-0.823,3.816-1.427,6.147-1.618,10.191l-0.743,6.514
				c-0.547,6.202,3.471,11.702,0.677,15.248c-8.741-2.318-5.138-7.025-6.768-14.047c-1.575,1.606-4.569,8.966-11.184,3.197
				c-6.263-5.666-0.122-14.601,1.427-19.391c0.11-0.119,0.195-0.307,0.213-0.469c0.188-1.16-0.121-0.11,0.383-1.468
				c4.124-9.11,4.76-7.635,10.98-7.25L275.584,118.429z M270.335,151.879c-5.214,6.015-1.417-0.868-5.561,7.781
				c-1.16,2.306-7.482,8.893-3.281,16.116C266.273,171.093,269.117,159.194,270.335,151.879z"/>
		</g>
	</g>
</g>
</svg>
