<?xml version="1.0" encoding="utf-8"?>
<!-- Generator: Adobe Illustrator 16.0.0, SVG Export Plug-In . SVG Version: 6.00 Build 0)  -->
<!DOCTYPE svg PUBLIC "-//W3C//DTD SVG 1.1//EN" "http://www.w3.org/Graphics/SVG/1.1/DTD/svg11.dtd">
<svg version="1.1" id="Layer_1" xmlns="http://www.w3.org/2000/svg" xmlns:xlink="http://www.w3.org/1999/xlink" x="0px" y="0px"
	 width="150px" height="62px" viewBox="0 0 150 62" enable-background="new 0 0 150 62" xml:space="preserve">
<g>
	<g>
		<path fill="#5152FB" d="M65.991,6.094c-3.892,1.021-3.063,1.213-6.955,0.383c-1.276-0.191-7.337-1.148-12.442-0.128l-3.126,0.575
			c-2.17,0.191-6.063,0.446-7.403,0.957c-9.251,2.744-7.721,4.914-10.016,7.593l-0.383,0.255l-1.085,1.34
			c-1.147,1.978,0.128,5.041-3.191,4.722c-0.254,0-0.894-0.255-1.147-0.255c1.722,2.233,1.275-0.575,1.594,1.851
			c0.384,2.105-0.575,1.723-0.957,2.234c-1.34,1.786-2.106,2.935-4.211,3.891l3.254-0.574c-0.511,0.83-0.191,0.446-0.575,1.531
			l-0.894,1.977c-0.063,0.063-0.127,0.192-0.127,0.321c-2.233,3.892-6.318,13.59-7.148,17.545c-0.191,0.957-0.127,1.404-0.318,2.105
			l-0.575,1.34l-0.191,0.384c-3.445,1.021-3.892-1.978-5.615-4.084l0.829-1.594l6.51-16.271c3.062-5.807,8.229-14.23,9.89-20.61
			c-4.722,0.51-12.061,2.616-16.59,0.255C2.758,10.689,0.207,6.987,0.525,4.5c2.36,2.871,14.42,2.425,18.569,1.404
			c3.253-0.702,2.871-0.638,5.04-2.425c4.274-3.637,5.423-0.255,9.826-0.575l8.87-1.021c0.83,0,0.638,0.128,2.104,0.382
			c1.851,0.447,5.042,0.383,7.531,0.383c-1.403-1.212,1.276-0.126-1.788-0.957l-3.445,0.127c-0.51-0.063-0.574,0-0.574,0
			s0-0.127-0.512-0.447c1.022-0.191,10.657-1.34,12.188-1.021C61.143,1.053,64.651,3.542,65.991,6.094z"/>
		<path fill="#5152FB" d="M53.482,29.13c-0.51,1.466-8.486,6.315-9.952,7.273c-4.53,2.869-4.658,2.551-7.339,5.935l-3.254,3.381
			c-0.958,0.638-6.763,6.38-10.529,0.383c-0.127-0.255-0.829-2.233-0.829-2.425c-1.276-8.423,10.72-29.16,20.482-18.376
			c2.552,5.487-0.51,8.039-0.893,9.89C43.656,34.999,51.505,30.469,53.482,29.13z M32.171,41.571
			c-3.955,1.34-5.742-2.106-5.87-2.681c-0.447,1.722-2.615,7.594,1.149,6.251L32.171,41.571z M28.598,38.253
			c4.02,2.042,7.146-0.127,8.677-3.19c0.638-1.531,0.383-0.191,0.703-2.617C39.508,22.238,26.556,30.852,28.598,38.253z"/>
		<path fill="#5152FB" d="M64.583,35.829c-4.402,9.188-2.68,9.824-1.978,14.228c-6.892-1.53-5.424-5.807-5.232-8.168
			c-3.766,2.744-5.552,7.275-11.55,7.275c-6.826-6.826,0.766-13.847,3.319-27.182c16.334-4.275-1.724,13.271-1.084,21.631
			c8.678-4.786,13.016-10.273,15.888-20.291c1.531-3.189,5.297-1.659,6.892,0.064C71.666,25.62,65.795,33.276,64.583,35.829z"/>
		<path fill="#5152FB" d="M92.081,39.4c-4.657,1.532-16.78,15.953-23.671,5.997c-0.703-1.019-1.149-2.361-1.34-4.082
			c-0.51-4.339,6.893-13.718,11.04-16.461c1.275-0.511,4.275-2.233,5.743-2.233c2.805-0.192,6.061,3.764,7.272,5.295
			c-1.467,1.339-2.935-2.169-6.955-0.446c-5.615,2.551-17.611,16.27-10.146,17.546C77.469,45.653,89.401,40.231,92.081,39.4z"/>
		<path fill="#5152FB" d="M121.939,24.471c0.449,2.233-1.4,6.572-4.656,12.632c-3.062,5.808-3.955,9.892-7.079,10.911
			c-1.854-1.85-1.47-2.231-0.831-4.848c1.724-7.021,4.211-10.529,4.53-14.549c-3.575,1.34-8.424,6.061-11.231,8.997
			c-3.255,3.51-6.126,7.911-8.357,12.953c-3-1.022-3.382-0.895-4.596-3.573l20.931-46.707c2.486-0.575,4.274-0.319,6.123,1.021
			c-0.509,4.529-4.146,10.782-6.379,14.739l-8.552,16.333c3.063-0.828,4.598-3.509,8.998-6.061c3.19-1.786,5.23-4.083,10.656-2.871
			L121.939,24.471z M100.504,32.831c-0.32,2.296,0.894,0.19,0.894,0.19L100.504,32.831z"/>
		<path fill="#5152FB" d="M149.502,33.276c-0.51,1.341-0.255,0.638-1.274,1.341l-9.889,6.698c-5.169,3.575-8.743,7.911-14.295,6.892
			c-8.613-1.723-5.868-11.422,0.829-17.228c1.597-1.405,1.341-1.659,2.681-3c2.042-1.977,3.509-3.189,5.743-5.167
			c1.851,0.447,3.571,1.149,5.297,1.468c2.806,0.51,2.871-0.064,4.401,1.658c-3.062,4.212-8.741,8.613-12.953,11.804
			c-4.339,3.384-6.317-0.638-7.146,4.341c-1.53,7.911,11.934-1.149,16.652-3.128c2.426-1.019,2.107-1.723,5.808-3.382
			C145.867,35.381,147.335,33.914,149.502,33.276z M125.13,38.253c3.571-0.83,7.72-4.786,9.888-7.465
			c1.086-1.34,2.107-1.787,2.683-3C134.254,27.024,125.896,35.381,125.13,38.253z"/>
	</g>
	<g>
		<path fill="#5152FB" d="M135.449,58.516c0.255,1.234,0.148,2.02-0.318,2.36c-0.468,0.34-1.129,0.477-1.979,0.415
			c-0.853-0.063-1.786-0.213-2.807-0.446c-1.02-0.232-1.98-0.31-2.872-0.223c-2.468,0.213-4.371,0.381-5.708,0.509
			c-1.343,0.127-2.415,0.222-3.225,0.289c-0.808,0.064-1.468,0.095-1.978,0.095c-0.509,0-1.179-0.03-2.01-0.095
			c-0.828-0.067-1.934-0.14-3.316-0.225c-1.383-0.086-3.31-0.192-5.775-0.319l9.379-2.04c-0.254-0.213-1.062-0.373-2.425-0.48
			c-1.363-0.104-3.062-0.17-5.102-0.188c-2.044-0.022-4.34-0.022-6.893,0c-2.551,0.019-5.17,0.062-7.848,0.126
			c-2.678,0.062-5.337,0.138-7.976,0.223c-2.637,0.085-5.052,0.17-7.241,0.255c-2.191,0.086-4.083,0.16-5.679,0.223
			c-1.594,0.066-2.668,0.118-3.222,0.161c-1.532,0.086-3.372,0.182-5.52,0.286c-2.147,0.107-4.328,0.182-6.539,0.223
			c-2.213,0.045-4.297,0.066-6.253,0.066c-1.957,0-3.532-0.043-4.721-0.128c-1.957-0.214-3.763-0.246-5.424-0.097
			c-1.659,0.149-3.403,0.31-5.232,0.479c-0.892,0.085-1.521,0.213-1.881,0.382c-0.362,0.17-0.585,0.352-0.67,0.543
			s-0.093,0.383-0.031,0.576c0.063,0.189,0.096,0.328,0.096,0.412c0,0.087-0.108,0.119-0.319,0.097
			c-0.214-0.021-0.638-0.158-1.276-0.416c-0.299-0.128-0.661-0.275-1.085-0.446c-0.425-0.17-0.861-0.341-1.308-0.509
			c-0.447-0.171-0.861-0.352-1.246-0.543c-0.381-0.191-0.679-0.371-0.893-0.543l-0.191-3.254l35.984-0.128
			c-0.042,0.171-0.01,0.288,0.096,0.352c0.106,0.062,0.234,0.097,0.383,0.097c0.148,0,0.297-0.034,0.447-0.097
			c0.147-0.063,0.265-0.161,0.351-0.287c0-0.042,0.021-0.064,0.063-0.064h0.766v0.448l5.55-0.512l23.224-0.127
			c0.386,0.127,1.183,0.213,2.394,0.255c1.213,0.044,2.638,0.063,4.274,0.063c1.638,0,3.403-0.01,5.297-0.031
			c1.892-0.023,3.742-0.052,5.549-0.097c1.809-0.041,3.48-0.084,5.009-0.126c1.532-0.045,2.766-0.086,3.702-0.13l-3.573-0.445
			c0.678-0.129,1.627-0.234,2.838-0.32c1.211-0.084,2.542-0.115,3.987-0.095c1.446,0.022,2.914,0.095,4.403,0.224
			c1.488,0.127,2.862,0.33,4.115,0.607c1.255,0.274,2.309,0.637,3.161,1.084C134.832,57.4,135.322,57.921,135.449,58.516z
			 M50.656,56.793c0.169,0.085,0.267,0.096,0.286,0.032c0.021-0.063-0.011-0.126-0.094-0.194c-0.086-0.062-0.192-0.113-0.32-0.156
			c-0.127-0.043-0.255-0.021-0.383,0.062c-0.298,0.256-0.298,0.384,0,0.384C50.273,56.921,50.443,56.878,50.656,56.793z
			 M62.013,55.835c0.34-0.126,0.606-0.191,0.798-0.191c0.191,0,0.339,0.033,0.445,0.096c0.106,0.064,0.117,0.203,0.032,0.415h-1.34
			C61.948,56.028,61.97,55.92,62.013,55.835z M69.604,56.091l-5.55,0.063v-0.063l6.635-0.062L69.604,56.091z"/>
	</g>
	<g>
		<path fill="#EDD500" d="M146.863,14.252c0,0-3.38-0.794-3.649-0.594c-0.267,0.2-1.576-3.342-1.576-3.342s-0.685,0.994-0.685,1.271
			c0,0.276,0.388-0.056,0.388-0.056s-0.86,0.729-0.817,0.947c0.043,0.216-0.579,1.123-0.579,1.123s-1.621,0.208-2.31,0.295
			c-0.688,0.088-1.357,0.174-1.357,0.174s1.12,1.129,1.506,1.518c0.385,0.391,1.344,1.04,1.344,1.04s-0.342,0.563-0.479,1.29
			c-0.139,0.726-0.456,2.411-0.456,2.411s0.84-0.279,1.669-0.772c0.888-0.529,1.631-0.892,1.631-0.892s1.887,1.036,2.191,1.202
			c0.302,0.166,1.051,0.576,1.051,0.576s-0.09-0.574-0.254-1.644c-0.163-1.07-0.309-2.011-0.309-2.011l1.767-1.409L146.863,14.252z
			 M141.57,18.232h0.326l0.33,0.159l0.115-0.159l0.771,0.831L141.57,18.232z"/>
	</g>
</g>
</svg>
